<mxfile host="app.diagrams.net" modified="2022-11-06T21:02:51.619Z" agent="5.0 (Windows)" etag="sHNVjrAG7oJuW20BqseQ" version="20.5.1" type="github">
  <diagram name="Page-1" id="e7e014a7-5840-1c2e-5031-d8a46d1fe8dd">
    <mxGraphModel dx="2591" dy="1597" grid="1" gridSize="10" guides="1" tooltips="1" connect="1" arrows="1" fold="1" page="1" pageScale="1" pageWidth="1169" pageHeight="826" background="none" math="0" shadow="0">
      <root>
        <mxCell id="0" />
        <mxCell id="1" parent="0" />
        <mxCell id="K77NQn4tlEbst4PRUxcX-163" style="rounded=0;orthogonalLoop=1;jettySize=auto;html=1;dashed=1;endArrow=oval;endFill=0;" edge="1" parent="1" source="K77NQn4tlEbst4PRUxcX-164" target="K77NQn4tlEbst4PRUxcX-174">
          <mxGeometry relative="1" as="geometry" />
        </mxCell>
        <mxCell id="K77NQn4tlEbst4PRUxcX-223" style="rounded=0;orthogonalLoop=1;jettySize=auto;html=1;dashed=1;endArrow=oval;endFill=0;" edge="1" parent="1" source="K77NQn4tlEbst4PRUxcX-164" target="K77NQn4tlEbst4PRUxcX-216">
          <mxGeometry relative="1" as="geometry" />
        </mxCell>
        <mxCell id="K77NQn4tlEbst4PRUxcX-224" style="edgeStyle=none;rounded=0;orthogonalLoop=1;jettySize=auto;html=1;dashed=1;endArrow=oval;endFill=0;" edge="1" parent="1" source="K77NQn4tlEbst4PRUxcX-164" target="K77NQn4tlEbst4PRUxcX-176">
          <mxGeometry relative="1" as="geometry" />
        </mxCell>
        <mxCell id="K77NQn4tlEbst4PRUxcX-164" value="Donaldson does not want an interface" style="shape=note;whiteSpace=wrap;html=1;rounded=0;shadow=0;comic=0;labelBackgroundColor=none;strokeWidth=1;fontFamily=Verdana;fontSize=12;align=center;size=20;labelPosition=center;verticalLabelPosition=middle;verticalAlign=bottom;" vertex="1" parent="1">
          <mxGeometry x="540" y="-310" width="130" height="52" as="geometry" />
        </mxCell>
        <mxCell id="K77NQn4tlEbst4PRUxcX-165" style="edgeStyle=orthogonalEdgeStyle;rounded=0;html=1;entryX=0.5;entryY=0;labelBackgroundColor=none;startArrow=none;startFill=0;startSize=5;endArrow=classicThin;endFill=1;endSize=5;jettySize=auto;orthogonalLoop=1;strokeWidth=1;fontFamily=Verdana;fontSize=12" edge="1" parent="1" source="K77NQn4tlEbst4PRUxcX-174" target="K77NQn4tlEbst4PRUxcX-200">
          <mxGeometry relative="1" as="geometry">
            <Array as="points">
              <mxPoint x="404" y="175" />
            </Array>
          </mxGeometry>
        </mxCell>
        <mxCell id="K77NQn4tlEbst4PRUxcX-166" style="edgeStyle=orthogonalEdgeStyle;rounded=0;html=1;exitX=0.75;exitY=1;labelBackgroundColor=none;startArrow=none;startFill=0;startSize=5;endArrow=classicThin;endFill=1;endSize=5;jettySize=auto;orthogonalLoop=1;strokeWidth=1;fontFamily=Verdana;fontSize=12" edge="1" parent="1" source="K77NQn4tlEbst4PRUxcX-200" target="K77NQn4tlEbst4PRUxcX-176">
          <mxGeometry relative="1" as="geometry" />
        </mxCell>
        <mxCell id="K77NQn4tlEbst4PRUxcX-167" style="edgeStyle=orthogonalEdgeStyle;rounded=0;html=1;exitX=0.25;exitY=1;entryX=0.5;entryY=0;labelBackgroundColor=none;startArrow=none;startFill=0;startSize=5;endArrow=classicThin;endFill=1;endSize=5;jettySize=auto;orthogonalLoop=1;strokeWidth=1;fontFamily=Verdana;fontSize=12" edge="1" parent="1" source="K77NQn4tlEbst4PRUxcX-200" target="K77NQn4tlEbst4PRUxcX-216">
          <mxGeometry relative="1" as="geometry" />
        </mxCell>
        <mxCell id="K77NQn4tlEbst4PRUxcX-168" style="edgeStyle=orthogonalEdgeStyle;rounded=0;html=1;entryX=0.75;entryY=0;labelBackgroundColor=none;startArrow=none;startFill=0;startSize=5;endArrow=classicThin;endFill=1;endSize=5;jettySize=auto;orthogonalLoop=1;strokeWidth=1;fontFamily=Verdana;fontSize=12" edge="1" parent="1" source="K77NQn4tlEbst4PRUxcX-181" target="K77NQn4tlEbst4PRUxcX-204">
          <mxGeometry relative="1" as="geometry" />
        </mxCell>
        <mxCell id="K77NQn4tlEbst4PRUxcX-169" value="Yes" style="edgeStyle=orthogonalEdgeStyle;rounded=0;labelBackgroundColor=none;startArrow=none;startFill=0;startSize=5;endArrow=classicThin;endFill=1;endSize=5;jettySize=auto;orthogonalLoop=1;strokeWidth=1;fontFamily=Verdana;fontSize=12;html=1;" edge="1" parent="1" source="K77NQn4tlEbst4PRUxcX-217" target="K77NQn4tlEbst4PRUxcX-228">
          <mxGeometry relative="1" as="geometry">
            <mxPoint x="60" y="430" as="targetPoint" />
          </mxGeometry>
        </mxCell>
        <mxCell id="K77NQn4tlEbst4PRUxcX-170" style="edgeStyle=none;rounded=0;html=1;labelBackgroundColor=none;startArrow=none;startFill=0;startSize=5;endArrow=classicThin;endFill=1;endSize=5;jettySize=auto;orthogonalLoop=1;strokeWidth=1;fontFamily=Verdana;fontSize=12" edge="1" parent="1" source="K77NQn4tlEbst4PRUxcX-209" target="K77NQn4tlEbst4PRUxcX-183">
          <mxGeometry relative="1" as="geometry" />
        </mxCell>
        <mxCell id="K77NQn4tlEbst4PRUxcX-171" style="edgeStyle=none;rounded=0;html=1;dashed=1;labelBackgroundColor=none;startArrow=none;startFill=0;startSize=5;endArrow=oval;endFill=0;endSize=5;jettySize=auto;orthogonalLoop=1;strokeWidth=1;fontFamily=Verdana;fontSize=12" edge="1" parent="1" source="K77NQn4tlEbst4PRUxcX-214" target="K77NQn4tlEbst4PRUxcX-183">
          <mxGeometry relative="1" as="geometry" />
        </mxCell>
        <mxCell id="K77NQn4tlEbst4PRUxcX-172" style="edgeStyle=orthogonalEdgeStyle;rounded=0;html=1;labelBackgroundColor=none;startArrow=none;startFill=0;startSize=5;endArrow=classicThin;endFill=1;endSize=5;jettySize=auto;orthogonalLoop=1;strokeWidth=1;fontFamily=Verdana;fontSize=12" edge="1" parent="1" source="K77NQn4tlEbst4PRUxcX-173" target="K77NQn4tlEbst4PRUxcX-174">
          <mxGeometry relative="1" as="geometry" />
        </mxCell>
        <mxCell id="K77NQn4tlEbst4PRUxcX-173" value="" style="ellipse;whiteSpace=wrap;html=1;rounded=0;shadow=0;comic=0;labelBackgroundColor=none;strokeWidth=1;fillColor=#000000;fontFamily=Verdana;fontSize=12;align=center;" vertex="1" parent="1">
          <mxGeometry x="383.5" y="10" width="40" height="40" as="geometry" />
        </mxCell>
        <mxCell id="K77NQn4tlEbst4PRUxcX-174" value="Launch Main Menu" style="rounded=1;whiteSpace=wrap;html=1;shadow=0;comic=0;labelBackgroundColor=none;strokeWidth=1;fontFamily=Verdana;fontSize=12;align=center;arcSize=50;" vertex="1" parent="1">
          <mxGeometry x="353.5" y="80" width="100" height="30" as="geometry" />
        </mxCell>
        <mxCell id="K77NQn4tlEbst4PRUxcX-175" style="rounded=0;html=1;labelBackgroundColor=none;startArrow=none;startFill=0;startSize=5;endArrow=classicThin;endFill=1;endSize=5;jettySize=auto;orthogonalLoop=1;strokeWidth=1;fontFamily=Verdana;fontSize=12" edge="1" parent="1" source="K77NQn4tlEbst4PRUxcX-176" target="K77NQn4tlEbst4PRUxcX-180">
          <mxGeometry relative="1" as="geometry" />
        </mxCell>
        <mxCell id="K77NQn4tlEbst4PRUxcX-176" value="Select &#39;Update Twitter Content&#39;" style="rounded=1;whiteSpace=wrap;html=1;shadow=0;comic=0;labelBackgroundColor=none;strokeWidth=1;fontFamily=Verdana;fontSize=12;align=center;arcSize=50;" vertex="1" parent="1">
          <mxGeometry x="627.5" y="220" width="115" height="38" as="geometry" />
        </mxCell>
        <mxCell id="K77NQn4tlEbst4PRUxcX-177" style="edgeStyle=none;rounded=0;html=1;labelBackgroundColor=none;startArrow=none;startFill=0;startSize=5;endArrow=classicThin;endFill=1;endSize=5;jettySize=auto;orthogonalLoop=1;strokeWidth=1;fontFamily=Verdana;fontSize=12" edge="1" parent="1" source="K77NQn4tlEbst4PRUxcX-178" target="K77NQn4tlEbst4PRUxcX-181">
          <mxGeometry relative="1" as="geometry" />
        </mxCell>
        <mxCell id="K77NQn4tlEbst4PRUxcX-178" value="Action" style="rounded=1;whiteSpace=wrap;html=1;shadow=0;comic=0;labelBackgroundColor=none;strokeWidth=1;fontFamily=Verdana;fontSize=12;align=center;arcSize=50;" vertex="1" parent="1">
          <mxGeometry x="635" y="380" width="100" height="30" as="geometry" />
        </mxCell>
        <mxCell id="K77NQn4tlEbst4PRUxcX-179" style="edgeStyle=none;rounded=0;html=1;labelBackgroundColor=none;startArrow=none;startFill=0;startSize=5;endArrow=classicThin;endFill=1;endSize=5;jettySize=auto;orthogonalLoop=1;strokeWidth=1;fontFamily=Verdana;fontSize=12" edge="1" parent="1" source="K77NQn4tlEbst4PRUxcX-180" target="K77NQn4tlEbst4PRUxcX-178">
          <mxGeometry relative="1" as="geometry" />
        </mxCell>
        <mxCell id="K77NQn4tlEbst4PRUxcX-180" value="Object" style="rounded=0;whiteSpace=wrap;html=1;shadow=0;comic=0;labelBackgroundColor=none;strokeWidth=1;fontFamily=Verdana;fontSize=12;align=center;arcSize=50;" vertex="1" parent="1">
          <mxGeometry x="565" y="318" width="70" height="30" as="geometry" />
        </mxCell>
        <mxCell id="K77NQn4tlEbst4PRUxcX-181" value="Object" style="rounded=0;whiteSpace=wrap;html=1;shadow=0;comic=0;labelBackgroundColor=none;strokeWidth=1;fontFamily=Verdana;fontSize=12;align=center;arcSize=50;" vertex="1" parent="1">
          <mxGeometry x="515" y="410" width="70" height="30" as="geometry" />
        </mxCell>
        <mxCell id="K77NQn4tlEbst4PRUxcX-182" style="edgeStyle=none;rounded=0;html=1;labelBackgroundColor=none;startArrow=none;startFill=0;startSize=5;endArrow=classicThin;endFill=1;endSize=5;jettySize=auto;orthogonalLoop=1;strokeWidth=1;fontFamily=Verdana;fontSize=12" edge="1" parent="1" source="K77NQn4tlEbst4PRUxcX-183" target="K77NQn4tlEbst4PRUxcX-185">
          <mxGeometry relative="1" as="geometry" />
        </mxCell>
        <mxCell id="K77NQn4tlEbst4PRUxcX-183" value="Object" style="rounded=0;whiteSpace=wrap;html=1;shadow=0;comic=0;labelBackgroundColor=none;strokeWidth=1;fontFamily=Verdana;fontSize=12;align=center;arcSize=50;" vertex="1" parent="1">
          <mxGeometry x="515" y="660" width="70" height="30" as="geometry" />
        </mxCell>
        <mxCell id="K77NQn4tlEbst4PRUxcX-184" style="edgeStyle=none;rounded=0;html=1;labelBackgroundColor=none;startArrow=none;startFill=0;startSize=5;endArrow=classicThin;endFill=1;endSize=5;jettySize=auto;orthogonalLoop=1;strokeWidth=1;fontFamily=Verdana;fontSize=12" edge="1" parent="1" source="K77NQn4tlEbst4PRUxcX-185" target="K77NQn4tlEbst4PRUxcX-187">
          <mxGeometry relative="1" as="geometry" />
        </mxCell>
        <mxCell id="K77NQn4tlEbst4PRUxcX-185" value="Action" style="rounded=1;whiteSpace=wrap;html=1;shadow=0;comic=0;labelBackgroundColor=none;strokeWidth=1;fontFamily=Verdana;fontSize=12;align=center;arcSize=50;" vertex="1" parent="1">
          <mxGeometry x="620" y="720" width="100" height="30" as="geometry" />
        </mxCell>
        <mxCell id="K77NQn4tlEbst4PRUxcX-186" style="edgeStyle=none;rounded=0;html=1;labelBackgroundColor=none;startArrow=none;startFill=0;startSize=5;endArrow=classicThin;endFill=1;endSize=5;jettySize=auto;orthogonalLoop=1;strokeWidth=1;fontFamily=Verdana;fontSize=12" edge="1" parent="1" source="K77NQn4tlEbst4PRUxcX-187" target="K77NQn4tlEbst4PRUxcX-188">
          <mxGeometry relative="1" as="geometry" />
        </mxCell>
        <mxCell id="K77NQn4tlEbst4PRUxcX-187" value="Action" style="rounded=1;whiteSpace=wrap;html=1;shadow=0;comic=0;labelBackgroundColor=none;strokeWidth=1;fontFamily=Verdana;fontSize=12;align=center;arcSize=50;" vertex="1" parent="1">
          <mxGeometry x="620" y="860" width="100" height="30" as="geometry" />
        </mxCell>
        <mxCell id="K77NQn4tlEbst4PRUxcX-188" value="" style="shape=mxgraph.bpmn.shape;html=1;verticalLabelPosition=bottom;labelBackgroundColor=#ffffff;verticalAlign=top;perimeter=ellipsePerimeter;outline=end;symbol=terminate;rounded=0;shadow=0;comic=0;strokeWidth=1;fontFamily=Verdana;fontSize=12;align=center;" vertex="1" parent="1">
          <mxGeometry x="650" y="930" width="40" height="40" as="geometry" />
        </mxCell>
        <mxCell id="K77NQn4tlEbst4PRUxcX-189" style="edgeStyle=none;rounded=0;html=1;dashed=1;labelBackgroundColor=none;startArrow=none;startFill=0;startSize=5;endArrow=oval;endFill=0;endSize=5;jettySize=auto;orthogonalLoop=1;strokeWidth=1;fontFamily=Verdana;fontSize=12" edge="1" parent="1" source="K77NQn4tlEbst4PRUxcX-191" target="K77NQn4tlEbst4PRUxcX-176">
          <mxGeometry relative="1" as="geometry" />
        </mxCell>
        <mxCell id="K77NQn4tlEbst4PRUxcX-190" style="edgeStyle=none;rounded=0;html=1;dashed=1;labelBackgroundColor=none;startArrow=none;startFill=0;startSize=5;endArrow=oval;endFill=0;endSize=5;jettySize=auto;orthogonalLoop=1;strokeWidth=1;fontFamily=Verdana;fontSize=12" edge="1" parent="1" source="K77NQn4tlEbst4PRUxcX-191" target="K77NQn4tlEbst4PRUxcX-180">
          <mxGeometry relative="1" as="geometry" />
        </mxCell>
        <mxCell id="K77NQn4tlEbst4PRUxcX-191" value="Note" style="shape=note;whiteSpace=wrap;html=1;rounded=0;shadow=0;comic=0;labelBackgroundColor=none;strokeWidth=1;fontFamily=Verdana;fontSize=12;align=center;size=20;" vertex="1" parent="1">
          <mxGeometry x="710" y="306" width="75" height="44" as="geometry" />
        </mxCell>
        <mxCell id="K77NQn4tlEbst4PRUxcX-192" style="edgeStyle=none;rounded=0;html=1;dashed=1;labelBackgroundColor=none;startArrow=none;startFill=0;startSize=5;endArrow=oval;endFill=0;endSize=5;jettySize=auto;orthogonalLoop=1;strokeWidth=1;fontFamily=Verdana;fontSize=12" edge="1" parent="1" source="K77NQn4tlEbst4PRUxcX-194" target="K77NQn4tlEbst4PRUxcX-178">
          <mxGeometry relative="1" as="geometry" />
        </mxCell>
        <mxCell id="K77NQn4tlEbst4PRUxcX-193" style="edgeStyle=none;rounded=0;html=1;dashed=1;labelBackgroundColor=none;startArrow=none;startFill=0;startSize=5;endArrow=oval;endFill=0;endSize=5;jettySize=auto;orthogonalLoop=1;strokeWidth=1;fontFamily=Verdana;fontSize=12" edge="1" parent="1" source="K77NQn4tlEbst4PRUxcX-194" target="K77NQn4tlEbst4PRUxcX-181">
          <mxGeometry relative="1" as="geometry" />
        </mxCell>
        <mxCell id="K77NQn4tlEbst4PRUxcX-194" value="Note" style="shape=note;whiteSpace=wrap;html=1;rounded=0;shadow=0;comic=0;labelBackgroundColor=none;strokeWidth=1;fontFamily=Verdana;fontSize=12;align=center;size=20;" vertex="1" parent="1">
          <mxGeometry x="660" y="465" width="105" height="55" as="geometry" />
        </mxCell>
        <mxCell id="K77NQn4tlEbst4PRUxcX-195" style="edgeStyle=none;rounded=0;html=1;dashed=1;labelBackgroundColor=none;startArrow=none;startFill=0;startSize=5;endArrow=oval;endFill=0;endSize=5;jettySize=auto;orthogonalLoop=1;strokeWidth=1;fontFamily=Verdana;fontSize=12" edge="1" parent="1" source="K77NQn4tlEbst4PRUxcX-197" target="K77NQn4tlEbst4PRUxcX-185">
          <mxGeometry relative="1" as="geometry" />
        </mxCell>
        <mxCell id="K77NQn4tlEbst4PRUxcX-196" style="edgeStyle=none;rounded=0;html=1;dashed=1;labelBackgroundColor=none;startArrow=none;startFill=0;startSize=5;endArrow=oval;endFill=0;endSize=5;jettySize=auto;orthogonalLoop=1;strokeWidth=1;fontFamily=Verdana;fontSize=12" edge="1" parent="1" source="K77NQn4tlEbst4PRUxcX-197" target="K77NQn4tlEbst4PRUxcX-183">
          <mxGeometry relative="1" as="geometry" />
        </mxCell>
        <mxCell id="K77NQn4tlEbst4PRUxcX-197" value="Note" style="shape=note;whiteSpace=wrap;html=1;rounded=0;shadow=0;comic=0;labelBackgroundColor=none;strokeWidth=1;fontFamily=Verdana;fontSize=12;align=center;size=20;" vertex="1" parent="1">
          <mxGeometry x="670" y="640" width="115" height="50" as="geometry" />
        </mxCell>
        <mxCell id="K77NQn4tlEbst4PRUxcX-198" style="edgeStyle=none;rounded=0;html=1;dashed=1;labelBackgroundColor=none;startArrow=none;startFill=0;startSize=5;endArrow=oval;endFill=0;endSize=5;jettySize=auto;orthogonalLoop=1;strokeWidth=1;fontFamily=Verdana;fontSize=12" edge="1" parent="1" source="K77NQn4tlEbst4PRUxcX-199" target="K77NQn4tlEbst4PRUxcX-187">
          <mxGeometry relative="1" as="geometry" />
        </mxCell>
        <mxCell id="K77NQn4tlEbst4PRUxcX-199" value="Note" style="shape=note;whiteSpace=wrap;html=1;rounded=0;shadow=0;comic=0;labelBackgroundColor=none;strokeWidth=1;fontFamily=Verdana;fontSize=12;align=center;size=20;" vertex="1" parent="1">
          <mxGeometry x="700" y="790" width="95" height="45" as="geometry" />
        </mxCell>
        <mxCell id="K77NQn4tlEbst4PRUxcX-227" style="edgeStyle=orthogonalEdgeStyle;rounded=0;orthogonalLoop=1;jettySize=auto;html=1;" edge="1" parent="1" source="K77NQn4tlEbst4PRUxcX-200" target="K77NQn4tlEbst4PRUxcX-225">
          <mxGeometry relative="1" as="geometry" />
        </mxCell>
        <mxCell id="K77NQn4tlEbst4PRUxcX-200" value="" style="whiteSpace=wrap;html=1;rounded=0;shadow=0;comic=0;labelBackgroundColor=none;strokeWidth=1;fillColor=#000000;fontFamily=Verdana;fontSize=12;align=center;rotation=0;points=[[0,0,0,0,0],[0,0.3,0,0,0],[0,0.5,0,0,0],[0,0.7,0,0,0],[0,1,0,0,0],[0.13,0,0,0,0],[0.25,0,0,0,0],[0.25,1,0,0,0],[0.38,0,0,0,0],[0.5,0,0,0,0],[0.5,1,0,0,0],[0.63,0,0,0,0],[0.75,0,0,0,0],[0.75,1,0,0,0],[0.88,0,0,0,0],[1,0,0,0,0],[1,0.3,0,0,0],[1,0.5,0,0,0],[1,0.8,0,0,0],[1,1,0,0,0]];" vertex="1" parent="1">
          <mxGeometry x="160" y="210" width="317" height="10" as="geometry" />
        </mxCell>
        <mxCell id="K77NQn4tlEbst4PRUxcX-201" style="edgeStyle=none;rounded=0;html=1;labelBackgroundColor=none;startArrow=none;startFill=0;startSize=5;endArrow=classicThin;endFill=1;endSize=5;jettySize=auto;orthogonalLoop=1;strokeWidth=1;fontFamily=Verdana;fontSize=12" edge="1" parent="1" source="K77NQn4tlEbst4PRUxcX-202" target="K77NQn4tlEbst4PRUxcX-208">
          <mxGeometry relative="1" as="geometry" />
        </mxCell>
        <mxCell id="K77NQn4tlEbst4PRUxcX-202" value="Action" style="rounded=1;whiteSpace=wrap;html=1;shadow=0;comic=0;labelBackgroundColor=none;strokeWidth=1;fontFamily=Verdana;fontSize=12;align=center;arcSize=50;" vertex="1" parent="1">
          <mxGeometry x="364" y="500" width="100" height="30" as="geometry" />
        </mxCell>
        <mxCell id="K77NQn4tlEbst4PRUxcX-203" style="edgeStyle=none;rounded=0;html=1;labelBackgroundColor=none;startArrow=none;startFill=0;startSize=5;endArrow=classicThin;endFill=1;endSize=5;jettySize=auto;orthogonalLoop=1;strokeWidth=1;fontFamily=Verdana;fontSize=12" edge="1" parent="1" source="K77NQn4tlEbst4PRUxcX-204" target="K77NQn4tlEbst4PRUxcX-202">
          <mxGeometry relative="1" as="geometry" />
        </mxCell>
        <mxCell id="K77NQn4tlEbst4PRUxcX-204" value="" style="whiteSpace=wrap;html=1;rounded=0;shadow=0;comic=0;labelBackgroundColor=none;strokeWidth=1;fillColor=#000000;fontFamily=Verdana;fontSize=12;align=center;rotation=0;" vertex="1" parent="1">
          <mxGeometry x="340" y="460" width="147" height="10" as="geometry" />
        </mxCell>
        <mxCell id="K77NQn4tlEbst4PRUxcX-233" style="edgeStyle=orthogonalEdgeStyle;rounded=0;orthogonalLoop=1;jettySize=auto;html=1;fontFamily=Verdana;endArrow=classic;endFill=1;" edge="1" parent="1" source="K77NQn4tlEbst4PRUxcX-206" target="K77NQn4tlEbst4PRUxcX-230">
          <mxGeometry relative="1" as="geometry" />
        </mxCell>
        <mxCell id="K77NQn4tlEbst4PRUxcX-206" value="HandleDataCollector" style="rounded=0;whiteSpace=wrap;html=1;shadow=0;comic=0;labelBackgroundColor=none;strokeWidth=1;fontFamily=Verdana;fontSize=12;align=center;arcSize=50;" vertex="1" parent="1">
          <mxGeometry y="820" width="150" height="30" as="geometry" />
        </mxCell>
        <mxCell id="K77NQn4tlEbst4PRUxcX-207" style="edgeStyle=none;rounded=0;html=1;labelBackgroundColor=none;startArrow=none;startFill=0;startSize=5;endArrow=classicThin;endFill=1;endSize=5;jettySize=auto;orthogonalLoop=1;strokeWidth=1;fontFamily=Verdana;fontSize=12" edge="1" parent="1" source="K77NQn4tlEbst4PRUxcX-208" target="K77NQn4tlEbst4PRUxcX-209">
          <mxGeometry relative="1" as="geometry" />
        </mxCell>
        <mxCell id="K77NQn4tlEbst4PRUxcX-208" value="Object" style="rounded=0;whiteSpace=wrap;html=1;shadow=0;comic=0;labelBackgroundColor=none;strokeWidth=1;fontFamily=Verdana;fontSize=12;align=center;arcSize=50;" vertex="1" parent="1">
          <mxGeometry x="425" y="560" width="70" height="30" as="geometry" />
        </mxCell>
        <mxCell id="K77NQn4tlEbst4PRUxcX-209" value="Action" style="rounded=1;whiteSpace=wrap;html=1;shadow=0;comic=0;labelBackgroundColor=none;strokeWidth=1;fontFamily=Verdana;fontSize=12;align=center;arcSize=50;" vertex="1" parent="1">
          <mxGeometry x="385" y="630" width="100" height="30" as="geometry" />
        </mxCell>
        <mxCell id="K77NQn4tlEbst4PRUxcX-210" style="edgeStyle=none;rounded=0;html=1;dashed=1;labelBackgroundColor=none;startArrow=none;startFill=0;startSize=5;endArrow=oval;endFill=0;endSize=5;jettySize=auto;orthogonalLoop=1;strokeWidth=1;fontFamily=Verdana;fontSize=12" edge="1" parent="1" source="K77NQn4tlEbst4PRUxcX-212" target="K77NQn4tlEbst4PRUxcX-202">
          <mxGeometry relative="1" as="geometry" />
        </mxCell>
        <mxCell id="K77NQn4tlEbst4PRUxcX-211" style="edgeStyle=none;rounded=0;html=1;dashed=1;labelBackgroundColor=none;startArrow=none;startFill=0;startSize=5;endArrow=oval;endFill=0;endSize=5;jettySize=auto;orthogonalLoop=1;strokeWidth=1;fontFamily=Verdana;fontSize=12" edge="1" parent="1" source="K77NQn4tlEbst4PRUxcX-212" target="K77NQn4tlEbst4PRUxcX-208">
          <mxGeometry relative="1" as="geometry" />
        </mxCell>
        <mxCell id="K77NQn4tlEbst4PRUxcX-212" value="Note" style="shape=note;whiteSpace=wrap;html=1;rounded=0;shadow=0;comic=0;labelBackgroundColor=none;strokeWidth=1;fontFamily=Verdana;fontSize=12;align=center;size=20;" vertex="1" parent="1">
          <mxGeometry x="310" y="560" width="90" height="55" as="geometry" />
        </mxCell>
        <mxCell id="K77NQn4tlEbst4PRUxcX-213" style="edgeStyle=none;rounded=0;html=1;dashed=1;labelBackgroundColor=none;startArrow=none;startFill=0;startSize=5;endArrow=oval;endFill=0;endSize=5;jettySize=auto;orthogonalLoop=1;strokeWidth=1;fontFamily=Verdana;fontSize=12" edge="1" parent="1" source="K77NQn4tlEbst4PRUxcX-214" target="K77NQn4tlEbst4PRUxcX-209">
          <mxGeometry relative="1" as="geometry" />
        </mxCell>
        <mxCell id="K77NQn4tlEbst4PRUxcX-214" value="Note" style="shape=note;whiteSpace=wrap;html=1;rounded=0;shadow=0;comic=0;labelBackgroundColor=none;strokeWidth=1;fontFamily=Verdana;fontSize=12;align=center;size=20;" vertex="1" parent="1">
          <mxGeometry x="340" y="698" width="105" height="55" as="geometry" />
        </mxCell>
        <mxCell id="K77NQn4tlEbst4PRUxcX-215" style="edgeStyle=none;rounded=0;html=1;labelBackgroundColor=none;startArrow=none;startFill=0;startSize=5;endArrow=classicThin;endFill=1;endSize=5;jettySize=auto;orthogonalLoop=1;strokeWidth=1;fontFamily=Verdana;fontSize=12" edge="1" parent="1" source="K77NQn4tlEbst4PRUxcX-216" target="K77NQn4tlEbst4PRUxcX-219">
          <mxGeometry relative="1" as="geometry" />
        </mxCell>
        <mxCell id="K77NQn4tlEbst4PRUxcX-216" value="Select &#39;Add Handle&#39;" style="rounded=1;whiteSpace=wrap;html=1;shadow=0;comic=0;labelBackgroundColor=none;strokeWidth=1;fontFamily=Verdana;fontSize=12;align=center;arcSize=50;" vertex="1" parent="1">
          <mxGeometry x="125" y="288" width="100" height="30" as="geometry" />
        </mxCell>
        <mxCell id="K77NQn4tlEbst4PRUxcX-231" value="No" style="edgeStyle=orthogonalEdgeStyle;rounded=0;orthogonalLoop=1;jettySize=auto;html=1;endArrow=classic;endFill=1;fontFamily=Verdana;" edge="1" parent="1" source="K77NQn4tlEbst4PRUxcX-217" target="K77NQn4tlEbst4PRUxcX-206">
          <mxGeometry relative="1" as="geometry" />
        </mxCell>
        <mxCell id="K77NQn4tlEbst4PRUxcX-217" value="Does handle already exist in database?" style="rhombus;shadow=0;fontFamily=Verdana;fontSize=12;fontColor=rgb(0, 0, 0);align=center;strokeColor=rgb(0, 0, 0);strokeWidth=1;fillColor=rgb(255, 255, 255);html=1;comic=0;whiteSpace=wrap;" vertex="1" parent="1">
          <mxGeometry x="60" y="530" width="160" height="90" as="geometry" />
        </mxCell>
        <mxCell id="K77NQn4tlEbst4PRUxcX-218" style="edgeStyle=orthogonalEdgeStyle;rounded=0;html=1;labelBackgroundColor=none;startArrow=none;startFill=0;startSize=5;endArrow=classicThin;endFill=1;endSize=5;jettySize=auto;orthogonalLoop=1;strokeWidth=1;fontFamily=Verdana;fontSize=12" edge="1" parent="1" source="K77NQn4tlEbst4PRUxcX-219" target="K77NQn4tlEbst4PRUxcX-217">
          <mxGeometry relative="1" as="geometry" />
        </mxCell>
        <mxCell id="K77NQn4tlEbst4PRUxcX-219" value="&lt;div&gt;HandleManagement&lt;/div&gt;" style="rounded=0;whiteSpace=wrap;html=1;shadow=0;comic=0;labelBackgroundColor=none;strokeWidth=1;fontFamily=Verdana;fontSize=12;align=center;arcSize=50;" vertex="1" parent="1">
          <mxGeometry x="100" y="370" width="150" height="30" as="geometry" />
        </mxCell>
        <mxCell id="K77NQn4tlEbst4PRUxcX-225" value="Select &#39;Select Handle&#39;" style="rounded=1;whiteSpace=wrap;html=1;shadow=0;comic=0;labelBackgroundColor=none;strokeWidth=1;fontFamily=Verdana;fontSize=12;align=center;arcSize=50;" vertex="1" parent="1">
          <mxGeometry x="250" y="290" width="120" height="40" as="geometry" />
        </mxCell>
        <mxCell id="K77NQn4tlEbst4PRUxcX-229" style="edgeStyle=orthogonalEdgeStyle;rounded=0;orthogonalLoop=1;jettySize=auto;html=1;entryX=0.13;entryY=0;entryDx=0;entryDy=0;entryPerimeter=0;" edge="1" parent="1" source="K77NQn4tlEbst4PRUxcX-228" target="K77NQn4tlEbst4PRUxcX-200">
          <mxGeometry relative="1" as="geometry" />
        </mxCell>
        <mxCell id="K77NQn4tlEbst4PRUxcX-228" value="Display Error" style="rounded=1;whiteSpace=wrap;html=1;shadow=0;comic=0;labelBackgroundColor=none;strokeWidth=1;fontFamily=Verdana;fontSize=12;align=center;arcSize=50;" vertex="1" parent="1">
          <mxGeometry x="-150" y="160" width="120" height="40" as="geometry" />
        </mxCell>
        <mxCell id="K77NQn4tlEbst4PRUxcX-234" style="edgeStyle=orthogonalEdgeStyle;rounded=0;orthogonalLoop=1;jettySize=auto;html=1;fontFamily=Verdana;endArrow=classic;endFill=1;entryX=0.25;entryY=0;entryDx=0;entryDy=0;entryPerimeter=0;" edge="1" parent="1" source="K77NQn4tlEbst4PRUxcX-230" target="K77NQn4tlEbst4PRUxcX-200">
          <mxGeometry relative="1" as="geometry">
            <mxPoint x="-300" y="30" as="targetPoint" />
          </mxGeometry>
        </mxCell>
        <mxCell id="K77NQn4tlEbst4PRUxcX-230" value="Grab data from Twitter, save to database" style="rounded=1;whiteSpace=wrap;html=1;shadow=0;comic=0;labelBackgroundColor=none;strokeWidth=1;fontFamily=Verdana;fontSize=12;align=center;arcSize=50;" vertex="1" parent="1">
          <mxGeometry x="-320" y="-20" width="120" height="40" as="geometry" />
        </mxCell>
      </root>
    </mxGraphModel>
  </diagram>
</mxfile>
